<?xml version="1.0" encoding="UTF-8"?>
<svg width="326px" height="80px" viewBox="0 0 326 80" version="1.1" xmlns="http://www.w3.org/2000/svg" xmlns:xlink="http://www.w3.org/1999/xlink">
    <!-- Generator: Sketch 50.2 (55047) - http://www.bohemiancoding.com/sketch -->
    <title>Combined Shape</title>
    <desc>Created with Sketch.</desc>
    <defs></defs>
    <g id="Retail" stroke="none" stroke-width="1" fill="none" fill-rule="evenodd">
        <g id="Artboard-Copy-2" transform="translate(-21.000000, -1.000000)" fill="#EBEBEB">
            <path d="M341.995073,60.0050164 C341.996715,60.0033444 341.998358,60.0016723 342,60 C342,70.6666667 343.666667,77.6666667 347,81 C347,81 340.399658,80.9404952 334.762956,77.0239619 C334.739055,77.0073553 334.715404,76.9906247 334.692003,76.9737702 C331.467199,79.4964263 327.406726,81 322.995073,81 L40,81 C29.5065898,81 21,72.4934102 21,62 L21,20 C21,9.50658975 29.5065898,1 40,1 L322.995073,1 C333.488484,1 341.995073,9.50658975 341.995073,20 L341.995073,60.0050164 Z" id="Combined-Shape" transform="translate(184.000000, 41.000000) scale(-1, 1) translate(-184.000000, -41.000000) "></path>
        </g>
    </g>
</svg>