<?xml version="1.0" encoding="UTF-8"?>
<svg width="326px" height="80px" viewBox="0 0 326 80" version="1.1" xmlns="http://www.w3.org/2000/svg" xmlns:xlink="http://www.w3.org/1999/xlink">
    <!-- Generator: Sketch 50.2 (55047) - http://www.bohemiancoding.com/sketch -->
    <title>Combined Shape</title>
    <desc>Created with Sketch.</desc>
    <defs>
        <linearGradient x1="50%" y1="-353.95203%" x2="50%" y2="409.521299%" id="linearGradient-1">
            <stop stop-color="#28ABFC" offset="0%"></stop>
            <stop stop-color="#0052FF" offset="100%"></stop>
        </linearGradient>
    </defs>
    <g id="Retail" stroke="none" stroke-width="1" fill="none" fill-rule="evenodd">
        <g id="Artboard-Copy" transform="translate(-26.000000, -1.000000)" fill="url(#linearGradient-1)">
            <path d="M346.995073,60.0050164 C346.996715,60.0033444 346.998358,60.0016723 347,60 C347,70.6666667 348.666667,77.6666667 352,81 C352,81 345.399658,80.9404952 339.762956,77.0239619 C339.739055,77.0073553 339.715404,76.9906247 339.692003,76.9737702 C336.467199,79.4964263 332.406726,81 327.995073,81 L45,81 C34.5065898,81 26,72.4934102 26,62 L26,20 C26,9.50658975 34.5065898,1 45,1 L327.995073,1 C338.488484,1 346.995073,9.50658975 346.995073,20 L346.995073,60.0050164 Z" id="Combined-Shape"></path>
        </g>
    </g>
</svg>