<?xml version="1.0" encoding="UTF-8"?>
<svg width="229px" height="56px" viewBox="0 0 229 56" version="1.1" xmlns="http://www.w3.org/2000/svg" xmlns:xlink="http://www.w3.org/1999/xlink">
    <!-- Generator: Sketch 50.2 (55047) - http://www.bohemiancoding.com/sketch -->
    <title>Combined Shape</title>
    <desc>Created with Sketch.</desc>
    <defs></defs>
    <g id="Next-Gen" stroke="none" stroke-width="1" fill="none" fill-rule="evenodd">
        <g id="Response_Link-05-Copy-10" transform="translate(-1408.000000, -574.000000)" fill="#FFFFFF">
            <g id="dialog/response/Bubble" transform="translate(1407.590253, 574.000000)">
                <path d="M9.64828751,52.5410469 C6.91615222,54.6849649 0.652278584,54.6849649 0.652278584,54.6849649 C3.42289259,54.3227055 4.97450201,51.1107085 5.30710685,45.0489741 C5.21237131,44.4415256 5.16320089,43.8189875 5.16320089,43.1849649 L5.16320089,12 C5.16320089,5.372583 10.5357839,1.21743675e-15 17.1632009,0 L217.373072,0 C224.000489,-1.21743675e-15 229.373072,5.372583 229.373072,12 L229.373072,43.1849649 C229.373072,49.8123819 224.000489,55.1849649 217.373072,55.1849649 L17.1632009,55.1849649 C14.3184894,55.1849649 11.7049706,54.1951113 9.64828751,52.5410469 Z" id="Combined-Shape"></path>
            </g>
        </g>
    </g>
</svg>